
<svg width="121" height="121" viewBox="0 0 64 64" xmlns="http://www.w3.org/2000/svg">
  <g id="Flat">
    <path d="M53,2H11A3,3,0,0,0,8,5V59a3,3,0,0,0,3,3H53a3,3,0,0,0,3-3V5A3,3,0,0,0,53,2Zm1,57a1,1,0,0,1-1,1H11a1,1,0,0,1-1-1V5A1,1,0,0,1,11,4H53a1,1,0,0,1,1,1Z"/>
    <path d="M36,55H28a1,1,0,0,0,0,2h8a1,1,0,0,0,0-2Z"/>
    <path d="M50,8H14a1,1,0,0,0-1,1V47a1,1,0,0,0,1,1H50a1,1,0,0,0,1-1V9A1,1,0,0,0,50,8Zm-1,38H15V10H49Z"/>
    <path d="M26,43H18a1,1,0,0,0,0,2h8a1,1,0,0,0,0-2Z"/>
    <path d="M46,43H38a1,1,0,0,0,0,2h8a1,1,0,0,0,0-2Z"/>
    <path d="M34,43H30a1,1,0,0,0,0,2h4a1,1,0,0,0,0-2Z"/>
    <path d="M36,39a1,1,0,0,0,1-1V23a1,1,0,0,0-2,0V37A1,1,0,0,0,36,39Z"/>
    <path d="M32,35a1,1,0,0,0,1-1V23a1,1,0,0,0-2,0V34A1,1,0,0,0,32,35Z"/>
    <path d="M28,33a1,1,0,0,0,1-1V23a1,1,0,0,0-2,0V32A1,1,0,0,0,28,33Z"/>
  </g>
</svg>
